# xmcd CD database file
#
# Track frame offsets:
#	150
#	16429
#	34373
#	49227
#	69187
#	83348
#	104358
#	123827
#	141217
#	157910
#	176616
#	201404
#
# Disc length: 2926 seconds
#
# Revision: 5
# Processed by: cddbd v1.5.1PL0 Copyright (c) Steve Scherf et al.
# Submitted via: CDex 1.51
#
DISCID=9a0b6c0c
DTITLE=Evanescence - Fallen
DYEAR=2003
DGENRE=Metal
TTITLE0=Going Under
TTITLE1=Bring Me To Life
TTITLE2=Everybody's Fool
TTITLE3=My Immortal
TTITLE4=Haunted
TTITLE5=Tourniquet
TTITLE6=Imaginary
TTITLE7=Taking Over Me
TTITLE8=Hello
TTITLE9=My Last Breath
TTITLE10=Whisper
TTITLE11=Farther Away
EXTD=YEAR: 2003
EXTT0=
EXTT1=
EXTT2=
EXTT3=
EXTT4=
EXTT5=
EXTT6=
EXTT7=
EXTT8=
EXTT9=
EXTT10=
EXTT11=
PLAYORDER=
